<svg width="105" height="18" viewBox="0 0 105 18" fill="none" xmlns="http://www.w3.org/2000/svg">
<path d="M0.380682 17.6818H1.8892V12.4915H2.01705C2.34943 13.0284 2.98864 14.2045 4.88068 14.2045C7.33523 14.2045 9.0483 12.2358 9.0483 9.11648C9.0483 6.02273 7.33523 4.05398 4.85511 4.05398C2.9375 4.05398 2.34943 5.23011 2.01705 5.74148H1.83807V4.18182H0.380682V17.6818ZM1.86364 9.09091C1.86364 6.89205 2.83523 5.40909 4.67614 5.40909C6.59375 5.40909 7.53977 7.01989 7.53977 9.09091C7.53977 11.1875 6.56818 12.8494 4.67614 12.8494C2.8608 12.8494 1.86364 11.3153 1.86364 9.09091ZM14.2386 14.2301C15.9517 14.2301 16.8466 13.3097 17.1534 12.6705H17.2301V14H18.7386V7.53125C18.7386 4.41193 16.3608 4.05398 15.108 4.05398C13.625 4.05398 11.9375 4.56534 11.1705 6.35511L12.6023 6.86648C12.9347 6.15057 13.7209 5.38352 15.1591 5.38352C16.5462 5.38352 17.2301 6.11861 17.2301 7.37784V7.42898C17.2301 8.15767 16.4886 8.09375 14.6989 8.32386C12.8771 8.56037 10.8892 8.96307 10.8892 11.2131C10.8892 13.1307 12.3722 14.2301 14.2386 14.2301ZM14.4688 12.875C13.267 12.875 12.3977 12.3381 12.3977 11.2898C12.3977 10.1392 13.446 9.78125 14.6222 9.62784C15.2614 9.55114 16.9744 9.37216 17.2301 9.06534V10.446C17.2301 11.6733 16.2585 12.875 14.4688 12.875ZM21.492 14H23.0005V7.78693C23.0005 6.45739 24.0488 5.4858 25.4806 5.4858C25.8833 5.4858 26.2988 5.5625 26.4011 5.58807V4.05398C26.2285 4.04119 25.8322 4.02841 25.6085 4.02841C24.4324 4.02841 23.4096 4.69318 23.0517 5.66477H22.9494V4.18182H21.492V14ZM28.1893 14H29.6978V10.3246L30.7525 9.34659L34.4279 14H36.3455L31.8903 8.375L36.0387 4.18182H34.1722L29.8768 8.55398H29.6978V0.909091H28.1893V14ZM42.7791 7.68466H37.0518V9.09091H42.7791V7.68466ZM45.4334 14H46.9419V10.3246L47.9966 9.34659L51.6721 14H53.5897L49.1344 8.375L53.2828 4.18182H51.4164L47.1209 8.55398H46.9419V0.909091H45.4334V14ZM58.8088 14.2045C61.4679 14.2045 63.2576 12.1847 63.2576 9.14205C63.2576 6.07386 61.4679 4.05398 58.8088 4.05398C56.1497 4.05398 54.3599 6.07386 54.3599 9.14205C54.3599 12.1847 56.1497 14.2045 58.8088 14.2045ZM58.8088 12.8494C56.7889 12.8494 55.8684 11.1108 55.8684 9.14205C55.8684 7.1733 56.7889 5.40909 58.8088 5.40909C60.8287 5.40909 61.7491 7.1733 61.7491 9.14205C61.7491 11.1108 60.8287 12.8494 58.8088 12.8494ZM72.5149 6.38068C72.0419 4.98722 70.9808 4.05398 69.0376 4.05398C66.9666 4.05398 65.4325 5.23011 65.4325 6.89205C65.4325 8.24716 66.2379 9.15483 68.0405 9.5767L69.6768 9.96023C70.6676 10.1903 71.1342 10.6634 71.1342 11.3409C71.1342 12.1847 70.2393 12.875 68.8331 12.875C67.5994 12.875 66.826 12.3445 66.5575 11.2898L65.1257 11.6477C65.4773 13.3161 66.8516 14.2045 68.8587 14.2045C71.1406 14.2045 72.6939 12.9581 72.6939 11.2642C72.6939 9.89631 71.8374 9.03338 70.0859 8.60511L68.6286 8.24716C67.4652 7.95952 66.9411 7.5696 66.9411 6.81534C66.9411 5.97159 67.8359 5.35795 69.0376 5.35795C70.3544 5.35795 70.8977 6.08665 71.1598 6.7642L72.5149 6.38068ZM77.8539 14.2301C79.5669 14.2301 80.4618 13.3097 80.7686 12.6705H80.8453V14H82.3539V7.53125C82.3539 4.41193 79.976 4.05398 78.7232 4.05398C77.2402 4.05398 75.5527 4.56534 74.7857 6.35511L76.2175 6.86648C76.5499 6.15057 77.3361 5.38352 78.7743 5.38352C80.1614 5.38352 80.8453 6.11861 80.8453 7.37784V7.42898C80.8453 8.15767 80.1039 8.09375 78.3141 8.32386C76.4924 8.56037 74.5044 8.96307 74.5044 11.2131C74.5044 13.1307 75.9874 14.2301 77.8539 14.2301ZM78.084 12.875C76.8823 12.875 76.013 12.3381 76.013 11.2898C76.013 10.1392 77.0613 9.78125 78.2374 9.62784C78.8766 9.55114 80.5897 9.37216 80.8453 9.06534V10.446C80.8453 11.6733 79.8738 12.875 78.084 12.875ZM86.2067 14.1023C86.8395 14.1023 87.3572 13.5845 87.3572 12.9517C87.3572 12.3189 86.8395 11.8011 86.2067 11.8011C85.5739 11.8011 85.0561 12.3189 85.0561 12.9517C85.0561 13.5845 85.5739 14.1023 86.2067 14.1023ZM90.0643 14H91.5728V7.78693C91.5728 6.45739 92.6211 5.4858 94.0529 5.4858C94.4556 5.4858 94.8711 5.5625 94.9734 5.58807V4.05398C94.8008 4.04119 94.4045 4.02841 94.1808 4.02841C93.0046 4.02841 91.9819 4.69318 91.6239 5.66477H91.5217V4.18182H90.0643V14ZM102.949 9.9858C102.949 11.8267 101.543 12.6705 100.418 12.6705C99.165 12.6705 98.2701 11.75 98.2701 10.3182V4.18182H96.7615V10.4205C96.7615 12.9261 98.0911 14.1278 99.932 14.1278C101.415 14.1278 102.387 13.3352 102.847 12.3381H102.949V14H104.458V4.18182H102.949V9.9858Z" fill="white"/>
<path d="M-1 17.5795H105.838V18.8068H-1V17.5795Z" fill="white"/>
</svg>
