<svg width="26" height="10" viewBox="0 0 26 10" fill="none" xmlns="http://www.w3.org/2000/svg">
<path d="M5.78409 0.272727V5.96591C5.78409 7.24432 4.90625 8.16477 3.44886 8.16477C1.99148 8.16477 1.11364 7.24432 1.11364 5.96591V0.272727H0.0568182V6.05114C0.0568182 7.84091 1.39489 9.15341 3.44886 9.15341C5.50284 9.15341 6.84091 7.84091 6.84091 6.05114V0.272727H5.78409ZM10.9513 9H12.0082V5.59091H13.9173C13.994 5.59091 14.0664 5.59091 14.1388 5.58665L15.9798 9H17.207L15.234 5.39489C16.3462 5.01562 16.8661 4.10795 16.8661 2.94886C16.8661 1.40625 15.9457 0.272727 13.9002 0.272727H10.9513V9ZM12.0082 4.63636V1.21023H13.8661C15.2809 1.21023 15.8263 1.90057 15.8263 2.94886C15.8263 3.99716 15.2809 4.63636 13.8832 4.63636H12.0082ZM20.6271 9H25.7408V8.0625H21.6839V0.272727H20.6271V9Z" fill="#AAAAAA"/>
</svg>
